<!DOCTYPE svg PUBLIC "-//W3C//DTD SVG 1.1//EN" "http://www.w3.org/Graphics/SVG/1.1/DTD/svg11.dtd">
<!-- Uploaded to: SVG Repo, www.svgrepo.com, Transformed by: SVG Repo Mixer Tools -->
<svg width="256px" height="256px" viewBox="0 0 20 20" xmlns="http://www.w3.org/2000/svg" fill="#000000">
<g id="SVGRepo_bgCarrier" stroke-width="0"/>
<g id="SVGRepo_tracerCarrier" stroke-linecap="round" stroke-linejoin="round"/>
<g id="SVGRepo_iconCarrier"> <g id="add-user-square" transform="translate(-2 -2)"> <path id="secondary" fill="#111827" d="M12,15h0a5,5,0,0,1,5,5v1H7V20a5,5,0,0,1,5-5Z"/> <path id="primary" d="M13,7.13A3.66,3.66,0,0,0,12,7a4,4,0,1,0,3.46,6" fill="none" stroke="#9ca3af" stroke-linecap="round" stroke-linejoin="round" stroke-width="2"/> <path id="primary-2" data-name="primary" d="M12,15h0a5,5,0,0,0-5,5v1H17V20A5,5,0,0,0,12,15Zm5-6h4M19,7v4" fill="none" stroke="#9ca3af" stroke-linecap="round" stroke-linejoin="round" stroke-width="2"/> <path id="primary-3" data-name="primary" d="M21,15v5a1,1,0,0,1-1,1H4a1,1,0,0,1-1-1V4A1,1,0,0,1,4,3H19" fill="none" stroke="#9ca3af" stroke-linecap="round" stroke-linejoin="round" stroke-width="2"/> </g> </g>
</svg>